<!--?xml version="1.0" standalone="no"?-->
              <svg id="sw-js-blob-svg" viewBox="0 0 100 100" xmlns="http://www.w3.org/2000/svg" version="1.1">
                    <defs> 
                        <linearGradient id="sw-gradient" x1="0" x2="1" y1="1" y2="0">
                            <stop id="stop1" stop-color="rgba(231, 120, 23, 1)" offset="0%"></stop>
                            <stop id="stop2" stop-color="rgba(251, 168, 31, 1)" offset="100%"></stop>
                        </linearGradient>
                    </defs>
                <path fill="url(#sw-gradient)" d="M11.9,-15.5C17.4,-9.5,25.4,-7.7,29,-2.8C32.7,2.1,32,10.1,28.5,16.7C25,23.3,18.6,28.4,11.2,31.3C3.9,34.1,-4.5,34.7,-11.2,31.8C-17.9,28.9,-22.9,22.5,-28.5,15.3C-34.1,8.1,-40.2,-0.1,-40.2,-8.3C-40.3,-16.6,-34.1,-25,-26.4,-30.7C-18.7,-36.3,-9.3,-39.2,-3.1,-35.5C3.2,-31.8,6.3,-21.6,11.9,-15.5Z" width="100%" height="100%" transform="translate(50 50)" stroke-width="0" style="transition: all 0.3s ease 0s;"></path>
              </svg>